<?xml version="1.0" standalone="no"?>
<!DOCTYPE svg PUBLIC "-//W3C//DTD SVG 20010904//EN"
 "http://www.w3.org/TR/2001/REC-SVG-20010904/DTD/svg10.dtd">
<svg version="1.0" xmlns="http://www.w3.org/2000/svg"
 width="1000.000000pt" height="1000.000000pt" viewBox="0 0 1000.000000 1000.000000"
 preserveAspectRatio="xMidYMid meet">

<g transform="translate(0.000000,1000.000000) scale(0.100000,-0.100000)"
fill="#000000" stroke="none">
<path d="M3010 9441 c-462 -230 -761 -430 -1125 -752 -254 -226 -548 -560
-734 -838 -41 -60 -181 -282 -181 -286 0 -2 -14 -28 -31 -57 -47 -78 -158
-294 -179 -347 -10 -25 -32 -75 -48 -111 -17 -36 -39 -90 -50 -120 -11 -30
-39 -104 -61 -165 -22 -60 -41 -117 -41 -126 0 -9 -3 -19 -7 -23 -4 -3 -15
-37 -26 -74 -10 -37 -23 -83 -28 -102 -23 -82 -31 -114 -68 -300 -22 -107 -44
-238 -51 -290 -6 -52 -16 -119 -21 -149 -5 -30 -9 -88 -9 -130 0 -42 -7 -121
-15 -176 -19 -127 -18 -231 0 -370 8 -60 15 -143 15 -184 0 -41 4 -100 9 -130
6 -31 17 -108 26 -171 8 -63 20 -135 24 -160 5 -25 14 -67 19 -95 17 -91 53
-250 61 -275 5 -14 14 -45 21 -70 26 -92 31 -107 69 -220 86 -251 125 -346
233 -570 295 -610 783 -1213 1312 -1622 276 -214 679 -461 923 -566 27 -11 83
-36 124 -55 105 -49 354 -139 489 -177 25 -7 70 -21 100 -30 66 -21 128 -37
195 -49 28 -5 106 -20 175 -34 199 -40 287 -52 480 -67 58 -5 128 -13 155 -19
65 -13 417 -13 475 0 25 6 97 14 160 19 201 16 276 26 475 66 259 52 322 66
375 83 30 10 73 23 95 30 139 39 369 121 480 171 28 12 70 31 95 42 356 158
853 471 1095 692 11 10 58 51 105 91 133 115 372 365 505 529 486 597 828
1331 965 2071 22 121 29 165 40 245 7 47 16 108 22 135 14 74 24 789 10 784
-6 -2 -58 -76 -117 -163 -129 -194 -164 -238 -331 -425 -187 -208 -377 -384
-547 -507 -104 -75 -105 -76 -136 -179 -62 -205 -119 -367 -163 -465 -147
-324 -252 -499 -472 -790 -366 -482 -902 -896 -1476 -1137 -138 -58 -411 -149
-515 -172 -27 -6 -86 -20 -130 -30 -44 -11 -114 -25 -155 -31 -41 -7 -100 -16
-130 -21 -113 -19 -419 -31 -620 -25 -297 10 -437 29 -770 108 -98 23 -382
116 -465 152 -33 15 -69 30 -80 35 -148 62 -376 184 -523 278 -125 81 -367
266 -452 347 -42 39 -102 96 -135 126 -92 85 -264 281 -371 425 -84 113 -234
336 -234 349 0 2 -18 34 -40 70 -22 36 -40 68 -40 71 0 3 -24 54 -53 113 -57
115 -142 319 -162 392 -7 25 -22 70 -33 100 -45 124 -105 394 -144 650 -18
119 -18 769 0 905 39 288 145 704 222 872 11 24 20 45 20 48 0 3 10 27 21 53
12 26 28 63 37 82 32 75 134 274 152 300 11 16 20 31 20 34 0 11 139 226 171
265 16 20 58 76 94 124 65 89 243 293 310 357 47 45 65 80 65 128 0 21 4 52 9
68 5 16 14 61 21 99 32 188 123 516 176 632 8 18 26 61 39 97 40 106 169 363
250 499 43 70 76 130 74 132 -2 2 -20 -5 -39 -14z"/>
<path d="M3570 7378 c-182 -86 -774 -348 -906 -402 -95 -39 -183 -84 -240
-121 -400 -266 -583 -794 -448 -1297 71 -264 251 -574 458 -787 313 -321 715
-524 1202 -606 267 -45 634 -79 929 -88 l80 -2 -159 -78 c-402 -197 -802 -348
-1201 -453 -190 -50 -408 -94 -417 -85 -5 4 14 49 42 101 27 51 48 95 46 97
-2 2 -77 -31 -166 -74 l-162 -77 -129 134 -129 135 6 -45 c4 -25 17 -105 29
-178 16 -98 19 -135 10 -142 -6 -5 -78 -41 -159 -80 -82 -39 -147 -72 -145
-74 2 -2 81 -18 174 -35 94 -18 173 -35 177 -39 4 -4 17 -87 29 -185 13 -97
26 -174 30 -170 4 5 41 73 84 153 42 80 80 148 83 152 4 4 83 -9 176 -28 93
-19 170 -33 172 -31 2 1 -33 41 -77 89 -43 47 -79 90 -79 96 0 5 73 28 163 51
563 143 1140 385 1706 714 100 58 107 61 186 65 76 4 89 2 173 -32 268 -106
604 -177 695 -147 47 16 103 79 118 133 15 55 0 119 -40 168 l-28 34 129 48
c325 118 606 291 789 485 l65 69 437 199 c240 109 435 200 433 202 -1 1 -177
-65 -391 -147 -213 -83 -390 -148 -393 -145 -2 2 9 26 26 52 40 62 95 181 118
256 16 50 21 57 39 53 48 -14 175 -18 242 -7 145 22 233 72 257 146 13 39 21
44 240 166 296 165 298 168 62 65 -72 -31 -132 -56 -134 -56 -2 0 0 37 3 83 5
53 12 86 22 93 7 7 43 17 79 24 35 7 66 16 69 20 3 5 -10 13 -29 20 -67 22
-64 30 47 122 56 47 152 131 214 186 64 56 140 114 177 133 36 18 63 35 61 37
-2 2 -17 -4 -34 -12 -16 -9 -35 -16 -40 -16 -6 0 42 53 105 118 145 147 313
333 435 482 108 132 222 280 215 280 -2 0 -55 -60 -117 -132 -234 -274 -793
-806 -914 -871 -85 -45 -244 -115 -249 -109 -3 3 -14 -2 -23 -10 -22 -19 -65
-41 -130 -67 -49 -19 -50 -19 -91 -1 -36 16 -42 23 -42 50 0 35 -13 64 -43 97
l-20 22 25 38 c52 80 61 149 27 222 -11 26 -16 47 -10 50 5 3 140 76 300 161
160 85 289 155 287 157 -1 2 -151 -62 -332 -141 -276 -120 -333 -142 -354
-134 -14 5 -49 12 -78 16 -52 7 -54 9 -68 47 -7 22 -27 52 -44 68 -61 55 -177
30 -295 -64 l-50 -39 -42 48 c-23 26 -42 49 -42 52 -1 3 135 76 300 164 165
87 298 160 296 162 -2 2 -138 -55 -303 -127 -164 -72 -309 -135 -321 -139 -17
-7 -32 0 -81 39 -81 65 -161 113 -257 152 -44 18 -84 36 -88 39 -5 4 176 103
402 221 226 117 409 214 407 216 -1 1 -209 -90 -461 -203 l-459 -206 -116 16
c-458 65 -976 -69 -1510 -390 -58 -34 -134 -72 -170 -84 -84 -28 -192 -36
-272 -20 -74 14 -140 39 -133 50 3 4 144 81 314 171 170 90 308 165 307 166
-1 1 -157 -65 -346 -147 -189 -83 -350 -150 -358 -150 -8 0 -69 56 -136 125
l-122 126 81 43 c44 24 274 141 512 262 238 120 431 219 429 221 -1 1 -234
-101 -517 -228 -283 -127 -528 -236 -545 -241 -26 -9 -41 -5 -112 31 -146 73
-364 120 -508 108 -35 -2 -64 -2 -64 2 0 4 133 76 296 160 335 174 403 211
389 210 -5 0 -39 -14 -75 -31z m-363 -439 c218 -29 396 -127 547 -299 129
-148 280 -223 472 -237 155 -10 263 24 469 151 267 165 590 290 880 342 123
22 400 30 506 15 262 -38 454 -127 610 -281 257 -255 385 -677 336 -1112 -42
-369 -235 -666 -587 -903 -158 -105 -431 -232 -609 -281 l-64 -18 -104 108
c-57 60 -103 114 -103 120 0 6 28 30 63 53 54 37 76 45 172 63 61 11 124 24
140 28 26 8 27 10 10 15 -11 3 -42 8 -68 12 -27 3 -47 10 -45 15 2 4 68 59
148 122 182 143 189 148 217 175 13 12 23 20 23 17 0 -3 55 41 122 98 66 57
146 123 177 148 31 24 72 58 91 76 19 17 51 45 70 62 62 55 23 34 -57 -31 -92
-74 -448 -342 -548 -412 -38 -27 -72 -52 -75 -55 -3 -3 -63 -45 -133 -94
l-128 -87 -37 12 c-20 7 -52 21 -70 31 -18 10 -38 15 -44 12 -7 -5 -8 -2 -3 6
6 10 3 12 -13 8 -13 -4 -20 -2 -19 5 1 6 -9 12 -23 14 -14 1 -17 -1 -7 -3 9
-3 17 -9 17 -14 0 -5 -7 -6 -17 -3 -12 5 -14 3 -8 -7 5 -9 4 -11 -3 -6 -7 4
-12 11 -12 17 0 5 -10 19 -21 30 l-22 22 5 -31 c2 -17 1 -29 -4 -26 -4 3 -8
13 -8 22 0 12 -3 13 -8 5 -4 -7 -18 -11 -30 -8 -12 2 -22 0 -22 -5 0 -7 -12
-7 -38 -1 -9 2 28 31 40 31 10 0 10 2 -1 9 -12 8 -12 11 0 24 12 13 16 13 33
-1 18 -16 18 -16 7 5 -8 15 -20 22 -36 21 -13 -1 -23 -5 -23 -8 3 -33 -4 -50
-22 -50 -14 0 -20 7 -20 21 0 16 3 19 13 11 10 -8 13 -6 14 11 1 12 -1 17 -5
12 -25 -35 -65 12 -127 150 -15 33 -33 71 -40 85 -7 14 -38 86 -68 161 -65
160 -86 204 -86 174 -1 -91 46 -274 106 -420 61 -147 174 -352 256 -463 21
-30 35 -57 31 -61 -22 -18 -81 -58 -94 -64 -8 -4 -27 -15 -41 -25 -46 -30
-162 -99 -224 -132 -33 -18 -70 -43 -83 -56 -13 -13 -27 -24 -33 -24 -32 0
-261 144 -379 239 -100 79 -265 246 -349 351 -107 134 -193 270 -284 450 -43
85 -83 160 -89 165 -21 21 5 -82 49 -195 159 -404 489 -792 871 -1025 34 -21
62 -42 62 -48 0 -15 -577 -1 -750 17 -286 32 -532 71 -661 107 -307 85 -593
235 -818 430 -275 238 -504 627 -567 964 -23 125 -15 341 16 440 78 250 96
292 172 401 207 301 589 457 985 403z m3970 -328 c11 -11 25 -40 32 -65 13
-54 32 -66 101 -66 156 0 209 -120 109 -249 -27 -34 -23 -68 11 -108 31 -35
38 -71 18 -91 -17 -17 -28 -15 -28 6 0 32 -40 83 -78 99 -49 20 -120 13 -196
-21 -33 -15 -60 -25 -61 -24 -1 2 -16 48 -34 103 -18 55 -56 147 -84 204 l-52
103 40 34 c48 41 150 94 180 94 12 0 30 -9 42 -19z m152 -548 c14 -12 24 -36
30 -72 10 -62 28 -81 80 -81 45 0 116 -32 130 -58 8 -16 3 -25 -29 -57 -22
-22 -40 -42 -40 -46 0 -4 18 -2 40 3 23 6 43 8 46 6 9 -10 -15 -56 -55 -102
-23 -26 -41 -55 -41 -65 0 -9 11 -32 25 -51 34 -46 32 -74 -7 -103 -60 -46
-122 -61 -253 -61 -66 -1 -127 2 -136 6 -14 5 -14 14 -3 80 19 104 18 389 -1
479 -9 40 -14 73 -13 74 9 8 97 49 118 56 43 13 87 10 109 -8z m541 -23 c-34
-28 -68 -41 -55 -20 6 10 74 49 85 49 3 0 -11 -13 -30 -29z m-310 -72 c0 -9
-32 -10 -54 -2 -14 5 -14 9 1 31 l17 25 18 -24 c9 -12 18 -26 18 -30z m161
-263 c21 -37 39 -71 39 -75 0 -4 -37 -23 -82 -43 -83 -35 -83 -35 -101 -15
-17 20 -16 22 22 63 21 23 44 59 50 81 7 21 15 45 17 53 6 18 9 15 55 -64z
m-2280 -922 c11 -31 12 -30 -5 -30 -8 0 -15 3 -14 6 0 3 0 13 -1 21 -1 11 -3
12 -9 3 -5 -8 -13 -9 -22 -3 -13 9 -13 10 0 11 10 0 8 3 -5 9 -16 6 -13 8 13
7 26 0 36 -6 43 -24z m27 -8 c-3 -3 -9 2 -12 12 -6 14 -5 15 5 6 7 -7 10 -15
7 -18z m60 -30 c-3 -3 -9 2 -12 12 -6 14 -5 15 5 6 7 -7 10 -15 7 -18z m-28
-13 c-8 -3 -18 -10 -22 -16 -5 -6 -8 -2 -8 11 0 17 4 20 22 15 16 -4 18 -7 8
-10z m30 -12 c0 -5 -5 -10 -11 -10 -5 0 -7 5 -4 10 3 6 8 10 11 10 2 0 4 -4 4
-10z m25 -110 c-37 -25 -42 -25 -55 0 -10 19 -8 20 37 20 l48 0 -30 -20z m182
-403 c104 -101 112 -123 67 -176 -22 -27 -33 -31 -73 -31 -112 0 -475 95 -645
169 -41 18 -46 24 -36 36 7 8 20 15 29 15 10 0 102 58 207 129 l189 129 84
-90 c47 -50 127 -131 178 -181z"/>
<path d="M3247 6125 c-74 -26 -127 -101 -127 -180 l0 -40 18 35 c9 19 36 54
58 77 72 72 151 69 239 -9 l48 -43 -7 30 c-23 96 -140 162 -229 130z"/>
<path d="M2202 6083 c-34 -17 -65 -53 -76 -90 -7 -20 -3 -19 44 12 88 59 167
40 216 -52 26 -50 40 -34 24 27 -27 99 -121 146 -208 103z"/>
<path d="M2686 5749 c-22 -5 -68 -24 -103 -41 -73 -36 -98 -71 -89 -123 8 -39
27 -57 88 -84 41 -17 48 -24 53 -58 28 -167 123 -270 223 -244 83 23 160 140
170 258 2 38 11 77 18 88 19 26 18 75 -1 103 -37 51 -188 113 -273 111 -26 -1
-65 -5 -86 -10z m178 -73 c65 -20 128 -63 124 -84 -2 -11 -27 -25 -68 -40 -90
-31 -221 -27 -303 11 -32 14 -57 32 -57 40 0 7 19 24 42 37 88 50 176 62 262
36z m76 -295 c0 -12 -50 -84 -69 -98 -22 -17 -63 -16 -86 1 -18 13 -18 15 -1
40 9 15 31 36 49 46 32 20 107 28 107 11z"/>
<path d="M5310 4955 c-7 -9 -8 -15 -2 -15 5 0 12 7 16 15 3 8 4 15 2 15 -2 0
-9 -7 -16 -15z"/>
<path d="M4744 4916 c-6 -6 -8 -20 -4 -31 6 -17 8 -16 14 9 8 33 5 39 -10 22z"/>
<path d="M9046 5688 c-299 -353 -676 -714 -1038 -996 -149 -115 -204 -153
-212 -145 -3 4 -6 20 -6 37 -1 31 -1 31 -59 -33 l-59 -65 -81 37 c-45 20 -81
35 -81 32 0 -2 18 -35 41 -74 46 -80 48 -72 -30 -153 -25 -27 -40 -48 -34 -48
7 0 42 7 79 16 37 8 73 13 80 10 7 -3 29 -34 49 -70 20 -36 40 -66 44 -66 4 0
12 37 17 83 l9 82 85 21 85 21 -47 21 c-27 12 -48 26 -48 31 0 5 48 49 108 98
405 332 824 773 1156 1216 49 64 24 41 -58 -55z"/>
<path d="M7962 5295 c-523 -479 -1199 -954 -1896 -1335 -193 -105 -425 -220
-445 -220 -15 0 -14 17 5 79 8 29 14 56 12 61 -2 5 -50 -29 -106 -76 -57 -46
-108 -84 -114 -84 -5 0 -59 32 -119 71 -61 39 -113 69 -115 66 -3 -3 15 -56
40 -118 26 -62 46 -120 46 -129 0 -8 -48 -53 -107 -99 l-108 -84 145 7 146 7
48 -123 c27 -68 52 -127 56 -131 4 -4 22 50 40 120 18 70 37 134 42 141 7 7
38 12 82 13 39 1 100 4 136 8 l65 6 -68 43 c-37 23 -65 47 -62 51 3 5 44 30
93 56 235 127 684 412 952 604 395 283 752 580 1137 949 112 106 205 197 208
203 17 27 -21 -2 -113 -86z"/>
<path d="M8331 4233 c-266 -313 -591 -632 -911 -894 -132 -108 -308 -239 -322
-239 -6 0 -8 19 -3 53 l6 52 -58 -63 c-32 -34 -65 -62 -73 -62 -8 0 -44 14
-80 30 -36 16 -66 27 -69 25 -3 -4 32 -68 67 -122 13 -21 11 -26 -42 -81 -31
-32 -56 -61 -56 -64 0 -3 34 2 74 10 41 8 81 12 89 9 8 -3 31 -35 52 -72 20
-37 39 -65 41 -62 3 2 9 39 13 81 5 43 11 80 14 82 5 5 64 21 142 39 l29 6
-42 19 c-50 23 -48 32 21 85 249 192 643 582 916 909 118 141 286 356 279 356
-3 0 -42 -44 -87 -97z"/>
<path d="M6535 3488 c-468 -391 -978 -717 -1430 -913 -137 -60 -498 -185 -534
-185 -25 0 -26 6 -5 55 8 20 14 41 12 46 -2 5 -37 -14 -78 -41 -41 -27 -82
-50 -90 -50 -9 0 -49 27 -89 60 -41 33 -76 59 -77 57 -2 -2 8 -45 22 -95 14
-51 22 -97 19 -102 -3 -5 -41 -31 -85 -57 -43 -26 -77 -49 -75 -51 2 -2 48 -7
101 -11 71 -4 99 -10 105 -21 5 -8 18 -52 30 -97 12 -46 25 -81 29 -78 4 2 20
39 35 82 15 43 33 84 38 91 9 11 33 12 112 7 l100 -6 -43 38 c-23 21 -42 43
-42 49 0 5 33 20 73 33 225 72 579 236 817 378 337 202 693 469 1058 796 105
94 132 120 120 116 -2 0 -57 -46 -123 -101z"/>
</g>
</svg>
